<svg class="svg-try" xmlns="http://www.w3.org/2000/svg" width="100" height="100" viewBox="0 0 100 100">
  <g fill="none" fill-rule="evenodd">
    <path class="svg-try-pause no-animation-pause" stroke="#3F3E3E" stroke-linecap="round" stroke-linejoin="round" stroke-width="2" d="M48,25 L48,71.8053097 C45.1666667,73.6017699 42.3333333,74.5 39.5,74.5 C36.6666667,74.5 33.8333333,73.6017699 31,71.8053097"/>
    <path class="svg-try-play no-animation" stroke-linecap="round" stroke="#3F3E3E" stroke-width="2" d="M72.0763886,68.3352333 L62.1474475,68.3352333 L27.2723011,68.3352333 C25.0631621,68.3352333 23.2723011,66.5443723 23.2723011,64.3352333 C23.2723011,63.4859068 23.542644,62.6586256 24.0441798,61.9731933 L46.4462236,31.3570669 C47.7507422,29.5742247 50.2535427,29.1864669 52.0363849,30.4909855 C52.3678287,30.7335054 52.6599463,31.025623 52.9024662,31.3570669 L75.3045099,61.9731933 C76.6090286,63.7560355 76.2212708,66.258836 74.4384286,67.5633546 C73.7529963,68.0648904 72.9257152,68.3352333 72.0763886,68.3352333 L68.7548694,68.3352333" transform="rotate(90 49.674 49.027)"/>
  </g>
</svg>
